<svg width="20" height="20" viewBox="0 0 20 20" fill="none" xmlns="http://www.w3.org/2000/svg">
<path d="M10 18.9218L7.28125 16.5312L3.66563 16.2999L3.4375 12.6843L1.04688 9.96553L3.4375 7.24678L3.66875 3.63115L7.28438 3.3999L10 1.00928L12.7188 3.3999L16.3344 3.63115L16.5625 7.24678L18.9531 9.96553L16.5625 12.6843L16.3313 16.2999L12.7188 16.5312L10 18.9218ZM4.84375 15.1218L7.78438 15.3124L10 17.2593L12.2156 15.3124L15.1563 15.1218L15.3438 12.1874L17.2938 9.97178L15.3438 7.75303L15.1563 4.80928L12.2156 4.62178L10 2.67178L7.78438 4.62178L4.84375 4.80928L4.65625 7.75303L2.70625 9.96553L4.65625 12.1874L4.84375 15.1218Z" fill="#ED163A"/>
<path d="M4.84375 15.1218L7.78438 15.3124L10 17.2593L12.2156 15.3124L15.1563 15.1218L15.3438 12.1874L17.2938 9.97178L15.3438 7.75303L15.1563 4.80928L12.2156 4.62178L10 2.67178L7.78438 4.62178L4.84375 4.80928L4.65625 7.75303L2.70625 9.96553L4.65625 12.1874L4.84375 15.1218Z" fill="#ED163A"/>
<path d="M9.03447 13.0093L6.45947 10.4343L7.34385 9.54995L9.03447 11.2437L12.6563 7.62183L13.5407 8.5062L9.03447 13.0093Z" fill="white"/>
</svg>
