<svg id="icons_exp." data-name="icons exp." xmlns="http://www.w3.org/2000/svg" width="64" height="64" viewBox="0 0 64 64"><defs><style>.cls-1{fill:#ed163a;}.cls-2{fill:#fff;}</style></defs><polygon class="cls-1" points="50.41 21.64 47.59 24.46 52.66 29.54 34 29.54 34 33.53 52.66 33.53 47.59 38.61 50.41 41.44 60.31 31.54 50.41 21.64"/><polygon class="cls-2" points="41 20.79 41 10.54 25 10.54 25 3.38 4 13.27 4 49.8 25 59.69 25 52.53 41 52.53 41 41.59 37 41.59 37 48.53 25 48.53 25 37.53 21 37.53 21 52.53 21 53.38 8 47.27 8 15.8 21 9.69 21 10.54 21 29.54 15 29.54 15 33.53 21 33.53 25 33.53 25 14.54 37 14.54 37 20.79 41 20.79"/></svg>