<svg id="icons_exp." data-name="icons exp." xmlns="http://www.w3.org/2000/svg" width="64" height="64" viewBox="0 0 64 64"><defs><style>.cls-1{fill:#ed163a;}.cls-2{fill:#fff;}</style></defs><path class="cls-1" d="M50.86,10.84a28,28,0,0,0-37.72,0L16,13.68a24,24,0,0,1,32.06,0Z"/><path class="cls-2" d="M32,32.54a9,9,0,1,0-9-9A9,9,0,0,0,32,32.54Zm0-14a5,5,0,1,1-5,5A5,5,0,0,1,32,18.54Z"/><path class="cls-2" d="M53.62,13.74l-2.85,2.85A24,24,0,0,1,48.2,49.23L43.38,36.54H20.62L15.81,49.23a24,24,0,0,1-2.58-32.64l-2.85-2.84a28,28,0,1,0,43.24,0Zm-34.5,38,4.26-11.23H40.62l4.26,11.23a23.89,23.89,0,0,1-25.76,0Z"/></svg>