<svg id="icons_exp." data-name="icons exp." xmlns="http://www.w3.org/2000/svg" width="64" height="64" viewBox="0 0 64 64"><defs><style>.cls-1{fill:#fff;}.cls-2{fill:#ed163a;}</style></defs><path class="cls-1" d="M38.72,59.54H25.28L24,50.92a20.54,20.54,0,0,1-4.74-2.74l-8.13,3.15L4.39,39.69l6.79-5.44a20.57,20.57,0,0,1,0-5.43L4.39,23.38l6.7-11.64,8.13,3.15A20.54,20.54,0,0,1,24,12.15l1.32-8.61H38.72L40,12.15a20.54,20.54,0,0,1,4.74,2.74l8.13-3.15,6.7,11.64-6.79,5.44a20.57,20.57,0,0,1,0,5.43l6.79,5.44-6.7,11.64-8.13-3.15A20.54,20.54,0,0,1,40,50.92Zm-10-4h6.56L36.45,48l1.13-.39a16.93,16.93,0,0,0,5.53-3.2l.91-.79,7.14,2.77,3.27-5.69-6-4.78.22-1.18a16.41,16.41,0,0,0,0-6.35l-.22-1.18,6-4.78-3.27-5.69L44,19.48l-.91-.79a16.93,16.93,0,0,0-5.53-3.2l-1.13-.39L35.28,7.54H28.72L27.55,15.1l-1.13.39a16.93,16.93,0,0,0-5.53,3.2l-.91.79-7.14-2.77L9.57,22.4l6,4.78-.22,1.18a16.41,16.41,0,0,0,0,6.35l.22,1.18-6,4.78,3.27,5.69L20,43.59l.91.79a16.93,16.93,0,0,0,5.53,3.2l1.13.39Z"/><path class="cls-2" d="M32,40.54a9,9,0,1,1,9-9A9,9,0,0,1,32,40.54Zm0-14a5,5,0,1,0,5,5A5,5,0,0,0,32,26.54Z"/></svg>